<?xml version="1.0" encoding="utf-8" ?>
<svg xmlns="http://www.w3.org/2000/svg" xmlns:xlink="http://www.w3.org/1999/xlink" width="142" height="20">
	<defs>
		<clipPath id="clip_0">
			<rect x="-52" y="-32" width="1440" height="4438" clip-rule="evenodd"/>
		</clipPath>
	</defs>
	<g clip-path="url(#clip_0)">
		<path fill="rgb(255,255,255)" stroke="none" transform="translate(25 1)" d="M12.4198 5.11862C12.4198 2.17071 10.3631 0 6.72409 0L0 0L0 19L7.22503 19C10.7322 19 13 16.7757 13 13.694C13 11.3357 11.5233 9.64762 9.70386 9.19194C11.2596 8.65594 12.4198 7.07485 12.4198 5.11862ZM6.17039 7.85204C7.8317 7.85204 8.83358 6.91398 8.83358 5.46705C8.83358 4.0197 7.91074 3.10856 6.1439 3.10856L3.58624 3.10856L3.58624 7.85204L6.17039 7.85204ZM6.53952 15.9181C8.30636 15.9181 9.361 14.9803 9.361 13.4526C9.361 11.9521 8.41168 10.907 6.59228 10.907L3.58624 10.907L3.58624 15.9181L6.53952 15.9181Z" fill-rule="evenodd"/>
	</g>
	<defs>
		<clipPath id="clip_1">
			<rect x="-52" y="-32" width="1440" height="4438" clip-rule="evenodd"/>
		</clipPath>
	</defs>
	<g clip-path="url(#clip_1)">
		<path fill="rgb(255,255,255)" stroke="none" transform="translate(40 0)" d="M4 2.25551C4 1.00536 3.12191 0 2 0C0.902392 0 0 1.00536 0 2.25551C0 3.45107 0.902392 4.45643 2 4.45643C3.12191 4.45643 4 3.45107 4 2.25551ZM3.63426 20L0.390239 20L0.390239 6.63049L3.63426 6.63049L3.63426 20Z" fill-rule="evenodd"/>
	</g>
	<defs>
		<clipPath id="clip_2">
			<rect x="-52" y="-32" width="1440" height="4438" clip-rule="evenodd"/>
		</clipPath>
	</defs>
	<g clip-path="url(#clip_2)">
		<path fill="rgb(255,255,255)" stroke="none" transform="translate(48 6)" d="M3.55464 13L0 13L0 0.334509L3.44769 0.334509L3.44769 1.90464C4.24942 0.591855 5.82646 0 7.24287 0C10.5035 0 12 2.23935 12 5.01966L12 13L8.44557 13L8.44557 5.61171C8.44557 4.19591 7.72395 3.08916 6.01353 3.08916C4.46333 3.08916 3.55464 4.24742 3.55464 5.71473L3.55464 13L0 13L0 0.334509L3.44769 0.334509L3.44769 1.90464C4.24942 0.591855 5.82646 0 7.24287 0C10.5035 0 12 2.23935 12 5.01966L12 13L8.44557 13L8.44557 5.61171C8.44557 4.19591 7.72395 3.08916 6.01353 3.08916C4.46333 3.08916 3.55464 4.24742 3.55464 5.71473L3.55464 13Z"/>
	</g>
	<defs>
		<clipPath id="clip_3">
			<rect x="-52" y="-32" width="1440" height="4438" clip-rule="evenodd"/>
		</clipPath>
	</defs>
	<g clip-path="url(#clip_3)">
		<path fill="rgb(255,255,255)" stroke="none" transform="translate(63 6)" d="M10.3914 7C10.3914 4.50561 8.76363 3.24526 7 3.24526C5.23637 3.24526 3.60858 4.50561 3.60858 7C3.60858 9.46746 5.23637 10.7547 7 10.7547C8.76363 10.7547 10.3914 9.49439 10.3914 7L10.3914 7C10.3914 4.50561 8.76363 3.24526 7 3.24526C5.23637 3.24526 3.60858 4.50561 3.60858 7C3.60858 9.46746 5.23637 10.7547 7 10.7547C8.76363 10.7547 10.3914 9.49439 10.3914 7M14 7C14 11.0496 10.9884 14 7 14C3.01162 14 0 11.0496 0 7C0 2.92349 3.01162 0 7 0C10.9884 0 14 2.92349 14 7L14 7C14 11.0496 10.9884 14 7 14C3.01162 14 0 11.0496 0 7C0 2.92349 3.01162 0 7 0C10.9884 0 14 2.92349 14 7"/>
	</g>
	<defs>
		<clipPath id="clip_4">
			<rect x="-52" y="-32" width="1440" height="4438" clip-rule="evenodd"/>
		</clipPath>
	</defs>
	<g clip-path="url(#clip_4)">
		<path fill="rgb(255,255,255)" stroke="none" transform="translate(77 3)" d="M6.21554 3.8684L9 3.8684L9 6.97362L6.21554 6.97362L6.21554 12.3946C6.21554 13.5262 6.77808 13.8946 7.84711 13.8946C8.2971 13.8946 8.80314 13.8421 9 13.7893L9 16.6841C8.66256 16.8156 7.98747 17 6.89064 17C4.19048 17 2.50308 15.4998 2.50308 13.0001L2.50308 6.97362L0 6.97362L0 3.8684L0.702901 3.8684C2.16542 3.8684 2.84051 2.97368 2.84051 1.81588L2.84051 0L6.21554 0L6.21554 3.8684L9 3.8684L9 6.97362L6.21554 6.97362L6.21554 12.3946C6.21554 13.5262 6.77808 13.8946 7.84711 13.8946C8.2971 13.8946 8.80314 13.8421 9 13.7893L9 16.6841C8.66256 16.8156 7.98747 17 6.89064 17C4.19048 17 2.50308 15.4998 2.50308 13.0001L2.50308 6.97362L0 6.97362L0 3.8684L0.702901 3.8684C2.16542 3.8684 2.84051 2.97368 2.84051 1.81588L2.84051 0L6.21554 0L6.21554 3.8684Z"/>
	</g>
	<defs>
		<clipPath id="clip_5">
			<rect x="-52" y="-32" width="1440" height="4438" clip-rule="evenodd"/>
		</clipPath>
	</defs>
	<g clip-path="url(#clip_5)">
		<path fill="rgb(255,255,255)" stroke="none" transform="translate(89 6)" d="M8 3.56451C7.60013 3.48574 7.2534 3.45962 6.93325 3.45962C5.1199 3.45962 3.54677 4.32442 3.54677 7.10289L3.54677 13L0 13L0 0.104887L3.44005 0.104887L3.44005 2.01794C4.24001 0.314455 6.05336 0 7.17347 0C7.46662 0 7.73363 0.0261189 8 0.0524434L8 3.56451C7.60013 3.48574 7.2534 3.45962 6.93325 3.45962C5.1199 3.45962 3.54677 4.32442 3.54677 7.10289L3.54677 13L0 13L0 0.104887L3.44005 0.104887L3.44005 2.01794C4.24001 0.314455 6.05336 0 7.17347 0C7.46662 0 7.73363 0.0261189 8 0.0524434L8 3.56451Z"/>
	</g>
	<defs>
		<clipPath id="clip_6">
			<rect x="-52" y="-32" width="1440" height="4438" clip-rule="evenodd"/>
		</clipPath>
	</defs>
	<g clip-path="url(#clip_6)">
		<path fill="rgb(255,255,255)" stroke="none" transform="translate(99 6)" d="M8.29935 8.27627L8.29935 7.68526L5.27896 8.14196C4.3538 8.27627 3.61909 8.78695 3.61909 9.8081C3.61909 10.5874 4.19067 11.3397 5.36052 11.3397C6.88438 11.3397 8.29935 10.6142 8.29935 8.27627L8.29935 8.27627L8.29935 7.68526L5.27896 8.14196C4.3538 8.27627 3.61909 8.78695 3.61909 9.8081C3.61909 10.5874 4.19067 11.3397 5.36052 11.3397C6.88438 11.3397 8.29935 10.6142 8.29935 8.27627M4 6.01913L7.29241 5.53565C8.05445 5.42812 8.29935 5.05175 8.29935 4.59505C8.29935 3.65445 7.56486 2.87536 6.04099 2.87536C4.46247 2.87536 3.59176 3.86951 3.48287 5.02497L0.272232 4.35341C0.490018 2.28414 2.42191 0 6.01367 0C10.2586 0 11.8367 2.36468 11.8367 5.02497L11.8367 11.5278C11.8367 12.2263 11.9184 13.1669 12 13.6236L8.68026 13.6236C8.59848 13.2745 8.54425 12.5489 8.54425 12.0383C7.86399 13.0862 6.58525 14 4.5987 14C1.74143 14 0 12.0922 0 10.023C0 7.65827 1.76876 6.34152 4 6.01913L4 6.01913L7.29241 5.53565C8.05445 5.42812 8.29935 5.05175 8.29935 4.59505C8.29935 3.65445 7.56486 2.87536 6.04099 2.87536C4.46247 2.87536 3.59176 3.86951 3.48287 5.02497L0.272232 4.35341C0.490018 2.28414 2.42191 0 6.01367 0C10.2586 0 11.8367 2.36468 11.8367 5.02497L11.8367 11.5278C11.8367 12.2263 11.9184 13.1669 12 13.6236L8.68026 13.6236C8.59848 13.2745 8.54425 12.5489 8.54425 12.0383C7.86399 13.0862 6.58525 14 4.5987 14C1.74143 14 0 12.0922 0 10.023C0 7.65827 1.76876 6.34152 4 6.01913"/>
	</g>
	<defs>
		<clipPath id="clip_7">
			<rect x="-52" y="-32" width="1440" height="4438" clip-rule="evenodd"/>
		</clipPath>
	</defs>
	<g clip-path="url(#clip_7)">
		<path fill="rgb(255,255,255)" stroke="none" transform="translate(113 0)" d="M14 19.674C13.9451 19.1305 13.8901 18.1522 13.8901 17.2556L13.8901 0L10.2942 0L10.2942 7.63585C9.90975 6.92943 8.81163 5.97823 6.47841 5.97823C2.66257 5.97823 0 9.0489 0 12.9618C0 17.0108 2.74507 20 6.58826 20C8.4 20 9.77254 19.1848 10.3765 18.1251C10.3765 18.7501 10.4588 19.4021 10.5139 19.674L14 19.674ZM10.3489 12.9347C10.3489 15.3532 8.89413 16.7662 7.02746 16.7662C5.10587 16.7662 3.67841 15.3532 3.67841 12.9618C3.67841 10.5705 5.1608 9.21202 7.02746 9.21202C8.89413 9.21202 10.3489 10.5434 10.3489 12.9347Z" fill-rule="evenodd"/>
	</g>
	<defs>
		<clipPath id="clip_8">
			<rect x="-52" y="-32" width="1440" height="4438" clip-rule="evenodd"/>
		</clipPath>
	</defs>
	<g clip-path="url(#clip_8)">
		<path fill="rgb(255,255,255)" stroke="none" transform="translate(129 6)" d="M6.80823 14C10.0514 14 12.1423 12.0959 12.8124 9.81631L9.83692 8.93096C9.40806 10.1111 8.49693 10.9424 6.83494 10.9424C5.06611 10.9424 3.59173 9.68204 3.51117 7.9387L12.9462 7.9387C12.9462 7.88525 13 7.34882 13 6.83911C13 2.60155 10.5609 0 6.48664 0C3.10924 0 0 2.73581 0 6.94644C0 11.3985 3.18958 14 6.80823 14ZM6.54007 2.8966C8.57728 2.8966 9.43498 4.1839 9.48862 5.49814L3.59173 5.49814C3.67228 4.29123 4.69068 2.8966 6.54007 2.8966Z" fill-rule="evenodd"/>
	</g>
	<defs>
		<clipPath id="clip_9">
			<rect x="-52" y="-32" width="1440" height="4438" clip-rule="evenodd"/>
		</clipPath>
	</defs>
	<g clip-path="url(#clip_9)">
		<path fill="rgb(255,255,255)" stroke="none" transform="translate(0 1)" d="M0 0L0 18L0.198192 17.8228L6.12038 12.5254L11.215 4.55044L11.3615 4.32079L11.5935 4.17005L18 0L0 0L0 18L0.198192 17.8228L6.12038 12.5254L11.215 4.55044L11.3615 4.32079L11.5935 4.17005L18 0L0 0Z"/>
	</g>
	<defs>
		<clipPath id="clip_10">
			<rect x="-52" y="-32" width="1440" height="4438" clip-rule="evenodd"/>
		</clipPath>
	</defs>
	<g clip-path="url(#clip_10)">
		<path fill="rgb(255,255,255)" stroke="none" transform="translate(1 2)" d="M11.1428 4.49304L6.00007 12.5972L0 18L18 18L18 0L11.1428 4.49304L6.00007 12.5972L0 18L18 18L18 0L11.1428 4.49304Z"/>
	</g>

</svg>