<?xml version="1.0" encoding="utf-8" ?>
<svg xmlns="http://www.w3.org/2000/svg" xmlns:xlink="http://www.w3.org/1999/xlink" width="26" height="26">
	<defs>
		<clipPath id="clip_0">
			<rect x="-339.45999" y="-952.62" width="1411.2001" height="4349.2402" clip-rule="evenodd"/>
		</clipPath>
	</defs>
	<g clip-path="url(#clip_0)">
		<path fill="rgb(255,255,255)" stroke="none" transform="matrix(-4.28372e-08 0.98 -0.98 -4.28372e-08 25.1 0.920044)" d="M20.2415 0.606091Q20.1813 0.460827 20.0506 0.347527Q19.92 0.234226 19.7231 0.156579Q19.5262 0.0789321 19.2695 0.039466Q19.0129 0 18.7047 0L3 0Q2.84624 0 2.69485 0.0139819Q2.54347 0.0279637 2.39569 0.0558134Q2.24791 0.0836631 2.10495 0.125154Q1.96199 0.166644 1.825 0.221437Q1.68802 0.276229 1.55814 0.343877Q1.42826 0.411525 1.30653 0.491477Q1.1848 0.571429 1.07223 0.663032Q0.959651 0.754635 0.857143 0.857143Q0.754635 0.959651 0.663032 1.07223Q0.571429 1.1848 0.491477 1.30653Q0.411525 1.42826 0.343877 1.55814Q0.276229 1.68802 0.221437 1.825Q0.166644 1.96199 0.125154 2.10495Q0.0836631 2.24791 0.0558134 2.39569Q0.0279637 2.54347 0.0139819 2.69485Q0 2.84624 0 3L0 18.7047Q0 19.0129 0.039466 19.2695Q0.0789321 19.5262 0.156579 19.7231Q0.234226 19.92 0.347527 20.0506Q0.460827 20.1813 0.606091 20.2415Q0.751356 20.3016 0.923855 20.2894Q1.09635 20.2771 1.29047 20.1928Q1.48459 20.1085 1.69401 19.9549Q1.90342 19.8013 2.12132 19.5834L8.90565 12.7991L19.182 23.0754Q19.2907 23.1841 19.4076 23.2813Q19.5246 23.3784 19.6488 23.4632Q19.7729 23.548 19.9034 23.6198Q20.0338 23.6915 20.1694 23.7496Q20.305 23.8078 20.4447 23.8518Q20.5844 23.8958 20.727 23.9253Q20.8696 23.9549 21.014 23.9697Q21.1583 23.9845 21.3033 23.9845Q21.4483 23.9845 21.5926 23.9697Q21.737 23.9549 21.8796 23.9253Q22.0222 23.8958 22.1619 23.8518Q22.3016 23.8078 22.4372 23.7496Q22.5728 23.6915 22.7032 23.6198Q22.8337 23.548 22.9578 23.4632Q23.082 23.3784 23.199 23.2813Q23.3159 23.1841 23.4246 23.0754Q23.5333 22.9667 23.6305 22.8497Q23.7277 22.7328 23.8125 22.6086Q23.8973 22.4844 23.969 22.354Q24.0408 22.2236 24.0989 22.088Q24.157 21.9523 24.201 21.8127Q24.245 21.673 24.2746 21.5304Q24.3041 21.3878 24.3189 21.2434Q24.3338 21.099 24.3338 20.9541Q24.3338 20.8091 24.3189 20.6647Q24.3041 20.5203 24.2746 20.3777Q24.245 20.2351 24.201 20.0954Q24.157 19.9558 24.0989 19.8202Q24.0408 19.6846 23.969 19.5541Q23.8973 19.4237 23.8125 19.2995Q23.7277 19.1753 23.6305 19.0584Q23.5333 18.9415 23.4246 18.8327L13.1483 8.55641L19.5834 2.12132Q19.8013 1.90342 19.9549 1.69401Q20.1085 1.48459 20.1928 1.29047Q20.2771 1.09635 20.2894 0.923855Q20.3016 0.751356 20.2415 0.606091Z" fill-rule="evenodd"/>
	</g>

</svg>