<?xml version="1.0" encoding="utf-8" ?>
<svg xmlns="http://www.w3.org/2000/svg" xmlns:xlink="http://www.w3.org/1999/xlink" width="32" height="32">
	<defs>
		<clipPath id="clip_0">
			<rect x="-796.44281" y="-967.29163" width="1434.816" height="4422.0234" clip-rule="evenodd"/>
		</clipPath>
	</defs>
	<g clip-path="url(#clip_0)">
		<path fill="rgb(255,255,255)" stroke="none" transform="matrix(0.704561 -0.704561 0.704561 0.704561 0.677185 17.1223)" d="M2.00671 0L15.9868 0C17.0969 0 18 0.985737 18 2.19674L18 4L1.82556 4C0.834062 4 0.0355838 3.15424 0 2.07028C0.0609237 0.907514 0.939196 0 2.00671 0L15.9868 0C17.0969 0 18 0.985737 18 2.19674L18 4L1.82556 4C0.834062 4 0.0355838 3.15424 0 2.07028C0.0609237 0.907514 0.939196 0 2.00671 0Z"/>
	</g>
	<defs>
		<clipPath id="clip_1">
			<rect x="-796.44281" y="-967.29163" width="1434.816" height="4422.0234" clip-rule="evenodd"/>
		</clipPath>
	</defs>
	<g clip-path="url(#clip_1)">
		<path fill="rgb(255,255,255)" stroke="none" transform="matrix(0.704561 -0.704561 0.704561 0.704561 3.49542 19.9404)" d="M19.412 0.765858C19.4941 0.754562 19.5779 0.74835 19.6617 0.74835L21.8863 0.74835C23.0518 0.74835 24 1.69438 24 2.85954L24 13.8882C24 15.0534 23.0518 16 21.8863 16L2.11368 16C0.948724 16 0 15.0534 0 13.8882L0 0C0.026605 0.0242861 0.0532101 0.0446186 0.0798151 0.0689047C0.110383 0.0948851 0.141516 0.12143 0.17265 0.145716C0.21001 0.17678 0.247936 0.203325 0.285296 0.22987C0.320392 0.254157 0.351526 0.278443 0.387188 0.300469C0.426813 0.324756 0.468701 0.349042 0.508326 0.373328C0.543988 0.393095 0.579084 0.412863 0.614746 0.430372C0.656635 0.454658 0.700788 0.474425 0.747205 0.494193C0.782867 0.510007 0.817963 0.527516 0.853625 0.542765C0.902307 0.560839 0.950988 0.576088 0.997406 0.593597C1.03477 0.604892 1.07043 0.620142 1.10779 0.631438C1.15873 0.646687 1.21194 0.657418 1.26685 0.670973C1.30025 0.677751 1.33535 0.688482 1.37101 0.695259C1.43044 0.70825 1.49045 0.715027 1.55215 0.724064C1.58328 0.726323 1.61215 0.732536 1.64272 0.734795C1.73555 0.743831 1.82839 0.74835 1.92349 0.74835L19.2264 0.74835C19.2362 0.752346 19.247 0.752136 19.2576 0.751928C19.2635 0.751813 19.2694 0.751699 19.2751 0.752303C19.3039 0.759081 19.33 0.768117 19.3588 0.768117C19.3764 0.768117 19.3945 0.768117 19.412 0.765858ZM15.6794 8.65318C15.6794 9.93018 16.721 10.9671 17.9991 10.9671C19.2796 10.9671 20.3189 9.93018 20.3189 8.65318C20.3189 7.37788 19.2796 6.33866 17.9991 6.33866C16.721 6.33866 15.6794 7.37788 15.6794 8.65318Z" fill-rule="evenodd"/>
	</g>

</svg>