<?xml version="1.0" encoding="utf-8" ?>
<svg xmlns="http://www.w3.org/2000/svg" xmlns:xlink="http://www.w3.org/1999/xlink" width="35" height="36">
	<defs>
		<clipPath id="clip_0">
			<path d="M21.4399 0.916504L34.7697 12.9187L14.0993 35.8756L0.769491 23.8734L21.4399 0.916504Z" clip-rule="evenodd"/>
		</clipPath>
	</defs>
	<g clip-path="url(#clip_0)">
		<path fill="rgb(255,255,255)" stroke="none" transform="matrix(0.740544 0.666789 -0.666789 0.740544 21.7683 1.60492)" d="M9.18986 0.306516C10.6642 2.07924 14.1874 7.21762 14.1874 15.7168L14.1874 19.5253L14.8754 20.0008C16.2008 20.9204 17 22.4481 17 24.0833L17 28.6327C17 28.9006 16.8569 29.1504 16.6217 29.2784C16.3899 29.4051 16.1038 29.3918 15.8875 29.2409L13.6471 27.718C13.0193 27.2884 12.2803 27.0628 11.5225 27.0628L9.87795 27.0628L9.87795 29.2687C9.87795 29.6742 9.55519 30 9.15794 30L7.84206 30C7.44482 30 7.12087 29.6742 7.12087 29.2687L7.12087 27.0628L5.4775 27.0628C4.71966 27.0628 3.98074 27.2932 3.35295 27.718L1.11253 29.2409C0.896168 29.3918 0.614785 29.4051 0.37833 29.2784C0.147785 29.1504 0 28.9006 0 28.6327L0 24.0833C0 22.4481 0.799221 20.9155 2.12456 20.0008L2.81737 19.5302L2.81737 15.7168C2.81737 7.20796 6.41032 2.06959 7.90709 0.296862C8.06788 0.108608 8.30315 0 8.54788 0C8.79734 0 9.02907 0.113435 9.18986 0.306516ZM6 10.5024C6 11.8812 7.12264 13 8.50179 13C9.88213 13 11 11.8812 11 10.5024C11 9.1188 9.88213 8 8.50179 8C7.12264 8 6 9.1188 6 10.5024Z" fill-rule="evenodd"/>
	</g>

</svg>