<?xml version="1.0" encoding="utf-8" ?>
<svg xmlns="http://www.w3.org/2000/svg" xmlns:xlink="http://www.w3.org/1999/xlink" width="19" height="25">
	<defs>
		<clipPath id="clip_0">
			<rect x="-349" y="-806" width="1440" height="4438" clip-rule="evenodd"/>
		</clipPath>
	</defs>
	<g clip-path="url(#clip_0)">
		<path fill="rgb(255,255,255)" stroke="none" transform="matrix(-1 0 0 1 19 21)" d="M16.1244 0.65112C15.9942 0.260448 15.6475 0 15.2589 0L1.33139 0C0.887169 0 0.506234 0.338977 0.42715 0.804926L0.0110297 3.25223C-0.00770656 3.36433 -0.00389395 3.48085 0.0327072 3.58749C0.120288 3.84306 0.34251 4 0.582051 4L16.4035 4C16.5227 4 16.6415 3.96829 16.7397 3.89696C16.9703 3.73049 17.0533 3.43055 16.9661 3.1701L16.1244 0.65112C15.9942 0.260448 15.6475 0 15.2589 0L1.33139 0C0.887169 0 0.506234 0.338977 0.42715 0.804926L0.0110297 3.25223C-0.00770656 3.36433 -0.00389395 3.48085 0.0327072 3.58749C0.120288 3.84306 0.34251 4 0.582051 4L16.4035 4C16.5227 4 16.6415 3.96829 16.7397 3.89696C16.9703 3.73049 17.0533 3.43055 16.9661 3.1701L16.1244 0.65112Z"/>
	</g>
	<defs>
		<clipPath id="clip_1">
			<rect x="-349" y="-806" width="1440" height="4438" clip-rule="evenodd"/>
		</clipPath>
	</defs>
	<g clip-path="url(#clip_1)">
		<path fill="rgb(255,255,255)" stroke="none" transform="matrix(-1 0 0 1 18 0)" d="M13.408 2.82869L17.902 8.93026C18.0183 9.08792 18.032 9.29001 17.9382 9.45932L17.5573 10.1488C17.2842 10.6436 16.7887 11.0084 16.1982 11.1503C15.6077 11.2922 14.9776 11.1977 14.4693 10.8912L12.8243 9.89814C12.3685 10.2402 11.8551 10.4269 11.2926 10.4535C10.8973 10.472 10.5233 10.4061 10.193 10.3039C11.0941 12.4815 13.425 15.9812 14.4131 17.3711C14.5617 17.5801 14.5293 17.8546 14.3351 18.0304L13.264 19L1.26387 19C0.506819 17.2241 -0.713442 13.2551 0.540085 8.05597C1.44841 4.28989 3.81215 2.59808 5.63469 1.84225C7.35983 1.12691 8.91493 1.09798 9.32939 1.10489L13.5665 0.020126C13.7779 -0.0342704 14.0049 0.0235813 14.154 0.169691C14.3031 0.3159 14.3492 0.525291 14.2729 0.711877L13.408 2.82869ZM10.2156 5.00632C10.2156 5.29795 10.4768 5.53469 10.7993 5.53469L11.5926 5.53469C11.9152 5.53469 12.1763 5.29795 12.1763 5.00632C12.1763 4.7144 11.9152 4.47806 11.5926 4.47806L10.7993 4.47806C10.4768 4.47806 10.2156 4.7144 10.2156 5.00632Z" fill-rule="evenodd"/>
	</g>

</svg>