<svg width="101" height="31" viewBox="0 0 101 31" fill="none" xmlns="http://www.w3.org/2000/svg">
<g opacity="0.85">
<path fill-rule="evenodd" clip-rule="evenodd" d="M47.3603 12.6867C47.3603 13.2553 47.242 13.7455 47.0054 14.1573C46.7689 14.5691 46.4337 14.922 46.0198 15.1965C45.6058 15.4907 45.1327 15.7064 44.6004 15.824C44.0287 15.9809 43.4767 16.0397 42.8459 16.0397C42.4319 16.0397 42.0377 16.0005 41.6631 15.9809C41.2689 15.9417 40.8943 15.8632 40.5395 15.7456C40.1846 15.6279 39.8298 15.4711 39.4749 15.275C39.1398 15.0985 38.8244 14.8632 38.4893 14.5691C38.4499 14.5299 38.4499 14.471 38.4893 14.4514L39.8298 12.6867C39.8692 12.6474 39.9284 12.6278 39.9481 12.6474C40.4015 13.0004 40.8746 13.2749 41.3083 13.4122C41.7814 13.5887 42.2939 13.6867 42.7671 13.6867C43.1219 13.6867 43.4176 13.6475 43.6542 13.5887C43.8907 13.5298 44.1076 13.4318 44.2456 13.3141C44.4033 13.2161 44.4821 13.0984 44.5413 12.9808C44.6004 12.8631 44.6398 12.7455 44.6398 12.6278C44.6398 12.471 44.6004 12.3337 44.5215 12.1768C44.423 12.0592 44.3047 11.9415 44.1076 11.8239C43.9104 11.7062 43.6542 11.6082 43.3387 11.4906C43.0036 11.3729 42.6291 11.2552 42.156 11.1376C41.6237 10.9807 41.1703 10.8435 40.7563 10.667C40.3423 10.4905 40.0072 10.2748 39.7509 10.0199C39.4947 9.76501 39.2778 9.45127 39.1201 9.09832C38.9624 8.74537 38.9033 8.33359 38.9033 7.86299C38.9033 7.35317 39.0018 6.88257 39.199 6.51001C39.4158 6.11784 39.6721 5.76489 40.0663 5.47076C40.4212 5.17663 40.8746 4.96094 41.3674 4.82368C41.88 4.66681 42.4319 4.58838 43.0233 4.58838C43.6739 4.58838 44.3244 4.6472 44.9552 4.76485C45.5861 4.88251 46.1972 5.15702 46.8477 5.58841C46.8871 5.62763 46.9068 5.68645 46.8871 5.70606L45.8226 7.62769C45.7832 7.6669 45.7241 7.68651 45.7043 7.6669C45.1918 7.37278 44.7581 7.15708 44.3047 7.07865C43.8513 7.00022 43.4176 6.961 42.9642 6.961C42.5502 6.961 42.2151 7.01983 41.9588 7.17669C41.6828 7.33356 41.5646 7.52964 41.5646 7.86299C41.5646 8.01986 41.604 8.13751 41.6828 8.25516C41.7814 8.37281 41.8997 8.49046 42.0968 8.5885C42.3137 8.70615 42.5502 8.80419 42.8656 8.92184C43.2008 9.01989 43.5753 9.13754 44.0287 9.2748C44.7384 9.49049 45.3298 9.68657 45.7438 9.92187C46.1577 10.1572 46.5126 10.4317 46.7491 10.7258C46.9857 11.0199 47.1434 11.3141 47.2223 11.6474C47.3011 12.0004 47.3603 12.3337 47.3603 12.6867Z" fill="#A3BDE1"/>
<path fill-rule="evenodd" clip-rule="evenodd" d="M58.2616 8.78469C58.2616 8.45134 58.2024 8.19643 58.1039 7.96113C57.9858 7.72583 57.8673 7.54936 57.6901 7.4317C57.5125 7.27484 57.335 7.1964 57.0987 7.13758C56.8816 7.07875 56.6845 7.03954 56.4677 7.03954C56.2508 7.03954 56.0144 7.07875 55.8173 7.13758C55.6202 7.1964 55.4031 7.31405 55.2259 7.4317C55.0483 7.58857 54.8906 7.76505 54.8117 7.96113C54.6935 8.19643 54.654 8.47095 54.654 8.78469V11.9416C54.654 12.275 54.7132 12.5299 54.8117 12.7652C54.9302 13.0005 55.0483 13.177 55.2259 13.2946C55.4031 13.4515 55.5806 13.5299 55.8173 13.5888C56.034 13.6476 56.2311 13.6868 56.4677 13.6868C56.6845 13.6868 56.8816 13.6476 57.0987 13.5888C57.3153 13.5299 57.5125 13.4123 57.6901 13.2946C57.8673 13.1378 57.9858 12.9613 58.1039 12.7652C58.2221 12.5299 58.2616 12.2554 58.2616 11.9416V8.78469ZM60.8442 12.4515C60.8442 13.0789 60.7257 13.6084 60.4892 14.0397C60.2528 14.4907 59.9175 14.8633 59.5429 15.1966C59.1289 15.4908 58.6757 15.7261 58.1433 15.8829C57.611 16.0398 57.0393 16.1182 56.4479 16.1182C55.8565 16.1182 55.2849 16.0202 54.792 15.8829C54.2598 15.7261 53.8064 15.4908 53.3924 15.1966C52.9784 14.9025 52.6433 14.5104 52.4067 14.0397C52.1704 13.5888 52.0519 13.0397 52.0519 12.4515V8.23565C52.0519 7.60818 52.1704 7.07875 52.4461 6.64737C52.7221 6.19637 53.0375 5.82381 53.4517 5.54929C53.8655 5.27478 54.3388 5.03948 54.8512 4.90222C55.3834 4.74535 55.896 4.68652 56.4282 4.68652C56.9605 4.68652 57.4929 4.78457 58.025 4.92182C58.5573 5.07869 59.0304 5.31399 59.4444 5.60812C59.8585 5.90225 60.1935 6.29442 60.4499 6.7258C60.7257 7.1768 60.8442 7.72583 60.8442 8.31409V12.4515Z" fill="#A3BDE1"/>
<path fill-rule="evenodd" clip-rule="evenodd" d="M66.0089 15.9028V4.90224C66.0089 4.84361 66.0483 4.8042 66.1075 4.8042H68.4731C68.5324 4.8042 68.5716 4.84361 68.5716 4.90224V13.6086C68.5716 13.6674 68.6111 13.7066 68.6702 13.7066H73.8351C73.8942 13.7066 73.9336 13.7458 73.9336 13.8047V15.9224C73.9336 15.981 73.8942 16.0204 73.8351 16.0204H66.1274C66.0682 15.981 66.0089 15.9224 66.0089 15.9028Z" fill="#A3BDE1"/>
<path fill-rule="evenodd" clip-rule="evenodd" d="M81.5431 11.6475H83.613C83.6721 11.6475 83.7115 11.5886 83.7115 11.5298L83.4945 10.8827L82.6074 7.78461H82.5484L81.6613 10.8827L81.4445 11.5298C81.4445 11.5886 81.4837 11.6475 81.5431 11.6475ZM84.3226 13.7848H80.8332C80.7938 13.7848 80.7743 13.824 80.7346 13.8436L80.1038 15.9415C80.1038 15.9809 80.0447 16.0005 80.0052 16.0005H77.4033C77.3439 16.0005 77.2848 15.9415 77.3047 15.8829L81.2275 4.88256C81.2275 4.84334 81.2866 4.82373 81.326 4.82373H83.8692C83.9087 4.82373 83.9284 4.86295 83.9678 4.88256L87.792 15.8829C87.8314 15.9415 87.7527 16.0005 87.6934 16.0005H85.1307C85.0915 16.0005 85.0715 15.9613 85.0321 15.9415L84.3816 13.8436C84.3816 13.8044 84.3621 13.7848 84.3226 13.7848Z" fill="#A3BDE1"/>
<path fill-rule="evenodd" clip-rule="evenodd" d="M94.8101 9.51022C94.8101 9.56905 94.8495 9.60827 94.9087 9.60827H96.742C97.2151 9.60827 97.57 9.49062 97.7868 9.25531C98.0037 9.02001 98.1219 8.72589 98.1219 8.37294C98.1219 8.01998 98.0037 7.72586 97.7868 7.49056C97.57 7.25525 97.2151 7.1376 96.742 7.1376H94.9087C94.8495 7.1376 94.8101 7.17682 94.8101 7.23565V9.51022ZM97.2743 4.8042C97.9051 4.8042 98.4372 4.90224 98.8513 5.09833C99.3047 5.31402 99.6596 5.56893 99.9156 5.92188C100.192 6.25522 100.389 6.62778 100.507 7.07878C100.626 7.49056 100.685 7.94155 100.685 8.37294C100.685 8.66706 100.645 8.96119 100.566 9.25532C100.488 9.54944 100.35 9.84357 100.211 10.1181C100.054 10.3926 99.8567 10.6279 99.6199 10.8632C99.4033 11.0789 99.1667 11.275 98.9105 11.4319C98.871 11.4711 98.8513 11.4907 98.871 11.5495L100.803 15.9222C100.842 15.981 100.764 16.0398 100.704 16.0398H98.1415C98.1022 16.0398 98.0825 16.0008 98.0429 15.981L96.3872 11.9613C96.3872 11.9221 96.328 11.9025 96.2886 11.9025H94.8298C94.7707 11.9025 94.7313 11.9417 94.7313 12.0005V15.9222C94.7313 15.981 94.6916 16.0202 94.6327 16.0202H92.2275C92.1685 16.0202 92.1289 15.981 92.1289 15.9222V4.92185C92.1289 4.86302 92.1685 4.82381 92.2275 4.82381H97.2743V4.8042Z" fill="#A3BDE1"/>
<path fill-rule="evenodd" clip-rule="evenodd" d="M42.3216 21.1977C42.3216 20.9481 42.2713 20.7442 42.1958 20.5855C42.1203 20.4042 41.9946 20.2679 41.8437 20.1774C41.6928 20.0867 41.5419 19.996 41.3407 19.9278C41.1394 19.8827 40.9634 19.86 40.7622 19.86H39.5046C39.4291 19.86 39.3788 19.9054 39.3788 19.9734V24.2355C39.3788 24.3038 39.4291 24.3489 39.5046 24.3489H40.7622C40.9634 24.3489 41.1143 24.3038 41.2904 24.2811C41.4916 24.2355 41.6425 24.1451 41.7934 24.0317C41.9443 23.9184 42.07 23.7821 42.1706 23.6236C42.2964 23.442 42.3216 23.2382 42.3216 23.0115V21.1977ZM43.227 23.1019C43.227 23.3742 43.1516 23.6463 43.0258 23.8955C42.9 24.1451 42.7491 24.3489 42.5228 24.5078C42.3216 24.689 42.07 24.8252 41.7934 24.8933C41.5167 25.0066 41.2149 25.0291 40.9131 25.0291H38.574C38.4985 25.0291 38.4482 24.9839 38.4482 24.9157V19.2476C38.4482 19.1798 38.4985 19.1343 38.574 19.1343H40.9131C41.2149 19.1343 41.5167 19.1798 41.7934 19.2705C42.07 19.361 42.2964 19.4744 42.5228 19.656C42.724 19.8373 42.8749 20.0412 43.0258 20.2679C43.1516 20.5175 43.1767 20.7896 43.1767 21.0614V23.1019H43.227Z" fill="#A3BDE1"/>
<path fill-rule="evenodd" clip-rule="evenodd" d="M46.2954 24.9158V20.9031C46.2954 20.8348 46.3457 20.7897 46.4212 20.7897H46.9997C47.0751 20.7897 47.1254 20.8348 47.1254 20.9031V24.9158C47.1254 24.9841 47.0751 25.0292 46.9997 25.0292H46.4212C46.3457 25.0292 46.2954 24.9841 46.2954 24.9158ZM47.2009 19.5199C47.2009 19.6561 47.1506 19.7695 47.05 19.8599C46.9242 19.9733 46.8236 19.9962 46.6727 19.9962C46.5469 19.9962 46.396 19.9509 46.3206 19.8599C46.1948 19.7466 46.1697 19.6561 46.1697 19.5199C46.1697 19.384 46.22 19.2707 46.3206 19.2027C46.4463 19.0893 46.5469 19.0664 46.6727 19.0664C46.8236 19.0664 46.9494 19.1118 47.05 19.2027C47.1254 19.2931 47.2009 19.384 47.2009 19.5199Z" fill="#A3BDE1"/>
<path fill-rule="evenodd" clip-rule="evenodd" d="M53.1113 22.0589C53.1113 22.0136 53.1113 21.9909 53.0612 21.9456C52.8346 21.8095 52.6083 21.6962 52.3822 21.6055C52.1052 21.4921 51.8791 21.4694 51.7028 21.4694C51.4264 21.4694 51.2503 21.5375 51.0992 21.6735C50.9483 21.8095 50.8731 22.0589 50.8731 22.399V23.5326C50.8731 23.8727 50.9483 24.0768 51.0992 24.2128C51.2503 24.3488 51.4513 24.4168 51.7028 24.4168C51.904 24.4168 52.1306 24.3715 52.3822 24.2808C52.6083 24.2128 52.8346 24.0994 53.0612 24.0087C53.1113 23.9634 53.1113 23.9407 53.1113 23.8954V22.0589ZM51.6276 20.7666C51.7783 20.7666 52.0049 20.8119 52.231 20.88C52.4574 20.948 52.7594 21.084 53.1113 21.2881L53.187 20.9026C53.187 20.8573 53.2625 20.8346 53.3128 20.8346H53.8407C53.9161 20.8346 53.9664 20.88 53.9664 20.948V25.3464C53.9664 25.5958 53.9161 25.7998 53.8158 26.0039C53.69 26.1853 53.5389 26.344 53.3628 26.48C53.1616 26.616 52.9355 26.7294 52.7089 26.7521C52.4825 26.8201 52.2058 26.8654 51.9543 26.8654C51.7028 26.8654 51.3761 26.8201 51.074 26.7294C50.7976 26.6614 50.5461 26.5254 50.3195 26.344C50.2692 26.2986 50.2692 26.2306 50.3195 26.2079L50.7473 25.7545C50.8225 25.8225 50.898 25.8905 51.0237 25.9359C51.1495 26.0039 51.2249 26.0492 51.3255 26.0719C51.4264 26.0946 51.5522 26.1399 51.6779 26.1399C51.8037 26.1853 51.8791 26.1853 51.9795 26.1853C52.1306 26.1853 52.2813 26.1853 52.4325 26.1399C52.5831 26.0946 52.7089 26.0266 52.8097 25.9585C52.9355 25.8905 53.0109 25.7772 53.0861 25.6411C53.1616 25.5051 53.2119 25.3691 53.2119 25.1877V24.7116C52.9101 24.893 52.6083 25.029 52.3822 25.0517C52.1052 25.1197 51.9294 25.165 51.728 25.165C51.2752 25.165 50.898 25.029 50.5962 24.7796C50.2946 24.5075 50.1434 24.1674 50.1434 23.646V22.3537C50.1434 21.8775 50.2946 21.4921 50.5962 21.22C50.7976 20.9026 51.1749 20.7666 51.6276 20.7666Z" fill="#A3BDE1"/>
<path fill-rule="evenodd" clip-rule="evenodd" d="M56.9344 24.9158V20.9031C56.9344 20.8348 56.9847 20.7897 57.0601 20.7897H57.6386C57.7143 20.7897 57.7643 20.8348 57.7643 20.9031V24.9158C57.7643 24.9841 57.7143 25.0292 57.6386 25.0292H57.0601C57.0098 25.0292 56.9344 24.9841 56.9344 24.9158ZM57.8401 19.5199C57.8401 19.6561 57.7895 19.7695 57.6889 19.8599C57.5631 19.9733 57.4628 19.9962 57.3116 19.9962C57.1859 19.9962 57.035 19.9509 56.9598 19.8599C56.834 19.7466 56.8086 19.6561 56.8086 19.5199C56.8086 19.384 56.8589 19.2707 56.9598 19.2027C57.0855 19.0893 57.1859 19.0664 57.3116 19.0664C57.4628 19.0664 57.5885 19.1118 57.6889 19.2027C57.7895 19.2931 57.8401 19.384 57.8401 19.5199Z" fill="#A3BDE1"/>
<path fill-rule="evenodd" clip-rule="evenodd" d="M63.6749 24.8478C63.6749 24.9158 63.6249 24.9611 63.5995 24.9611C63.4488 25.0065 63.2977 25.0291 63.0965 25.0745C62.8952 25.1198 62.7446 25.1198 62.6437 25.1198C62.1407 25.1198 61.7634 25.0065 61.5371 24.8024C61.311 24.5984 61.1852 24.2583 61.1852 23.7822V21.6056C61.1852 21.5376 61.1346 21.4923 61.0594 21.4923H60.6316C60.5564 21.4923 60.5059 21.4469 60.5059 21.3789V20.9255C60.5059 20.8574 60.5564 20.8121 60.6316 20.8121H61.0843C61.1346 20.8121 61.2101 20.7668 61.2101 20.7441L61.3613 19.9279C61.3613 19.8828 61.4113 19.8599 61.487 19.8599H61.8643C61.9397 19.8599 61.99 19.9052 61.99 19.9732V20.6987C61.99 20.7668 62.0401 20.8121 62.1158 20.8121H63.1719C63.2476 20.8121 63.2977 20.8574 63.2977 20.9255V21.3789C63.2977 21.4469 63.2476 21.4923 63.1719 21.4923H62.1158C62.0401 21.4923 61.99 21.5376 61.99 21.6056V23.5781C61.99 23.7595 61.99 23.8955 62.0401 23.9862C62.0904 24.0996 62.1158 24.1905 62.1913 24.2583C62.2665 24.3263 62.3419 24.3716 62.4174 24.3943C62.4931 24.4397 62.6188 24.4397 62.7192 24.4397C62.82 24.4397 62.9458 24.4397 63.0716 24.3943C63.1973 24.3943 63.348 24.349 63.4991 24.349L63.6749 24.8478Z" fill="#A3BDE1"/>
<path fill-rule="evenodd" clip-rule="evenodd" d="M69.0824 23.2381C69.0824 23.1701 69.0324 23.1247 68.9566 23.1247H67.8248C67.6991 23.1247 67.5987 23.1247 67.473 23.1701C67.3472 23.1701 67.2463 23.2152 67.1206 23.2834C66.9948 23.3515 66.9194 23.3968 66.8442 23.4875C66.7687 23.6008 66.7184 23.6915 66.7184 23.8276C66.7184 24.0316 66.7936 24.213 66.9445 24.281C67.0957 24.3944 67.2967 24.4622 67.5482 24.4622C67.6739 24.4622 67.7748 24.4622 67.9254 24.417C68.0512 24.3717 68.2021 24.3488 68.3027 24.3037C68.4285 24.2583 68.5293 24.1903 68.6551 24.1677C68.7808 24.0996 68.8812 24.0543 68.9566 24.0316V23.2381H69.0824ZM69.0324 24.5984C68.6551 24.7798 68.3533 24.9156 68.1266 24.9839C67.9005 25.0519 67.6739 25.0519 67.473 25.0519C67.0202 25.0519 66.643 24.9385 66.3661 24.7118C66.0896 24.4622 65.9385 24.1677 65.9385 23.782C65.9385 23.5328 66.0142 23.3286 66.1399 23.1927C66.2657 23.0114 66.4164 22.9207 66.5927 22.8073C66.7936 22.694 66.9699 22.6259 67.1709 22.6033C67.3721 22.5579 67.5482 22.535 67.6991 22.535H69.0573V22.2178C69.0573 21.9004 68.982 21.6964 68.7808 21.6057C68.5794 21.5148 68.3279 21.4243 67.976 21.4243C67.8248 21.4243 67.5987 21.4697 67.3721 21.4923C67.1709 21.5377 66.9445 21.6281 66.7687 21.7644C66.7184 21.8097 66.643 21.8097 66.6176 21.719L66.3412 21.3336C66.2906 21.288 66.2906 21.2203 66.3915 21.1976C66.6679 21.0162 66.9699 20.8802 67.2214 20.8575C67.5233 20.7895 67.8248 20.7441 68.1017 20.7441C68.7051 20.7441 69.1581 20.8802 69.4597 21.1296C69.7615 21.379 69.9124 21.7415 69.9124 22.2632V24.9612C69.9124 25.029 69.8623 25.0745 69.7866 25.0745H69.183L69.0324 24.5984Z" fill="#A3BDE1"/>
<path fill-rule="evenodd" clip-rule="evenodd" d="M73.8111 23.8957C73.8111 24.1453 73.8611 24.2811 73.962 24.304C74.0372 24.3491 74.1884 24.372 74.3896 24.372C74.465 24.372 74.5153 24.4174 74.5153 24.4854V25.0746C74.4399 25.0746 74.3141 25.12 74.2384 25.12H74.0123C73.7857 25.12 73.5847 25.0746 73.4839 25.0522C73.3581 25.0066 73.2578 24.9388 73.132 24.8479C73.0062 24.7345 72.9808 24.6441 72.9808 24.5078C72.9308 24.372 72.9308 24.2357 72.9308 24.0544V19.044C72.9308 18.976 72.9808 18.9307 73.0565 18.9307H73.635C73.7105 18.9307 73.7608 18.976 73.7608 19.044V23.9186H73.8111V23.8957Z" fill="#A3BDE1"/>
<path fill-rule="evenodd" clip-rule="evenodd" d="M19.7752 19.7378L12.5254 26.949C12.3212 27.1521 12.0659 27.2537 11.8107 27.2537C11.5554 27.2537 11.3001 27.1521 11.0959 26.949C10.6875 26.5427 10.6875 25.8995 11.0959 25.4932L18.3116 18.282C18.7201 17.8757 19.3668 17.8757 19.7752 18.282C20.1837 18.6883 20.1837 19.3315 19.7752 19.7378ZM17.8011 14.4902L14.1932 18.0789C13.989 18.282 13.7337 18.3836 13.4785 18.3836C13.2232 18.3836 12.9679 18.282 12.7637 18.0789C12.3553 17.6726 12.3553 17.0293 12.7637 16.6231L16.3716 13.0344C16.78 12.6281 17.4267 12.6281 17.8351 13.0344C18.2095 13.4406 18.2095 14.0839 17.8011 14.4902ZM10.9427 11.24L18.1925 4.0288C18.601 3.62254 19.2477 3.62254 19.6561 4.0288C20.0645 4.43507 20.0645 5.07833 19.6561 5.48459L12.3893 12.6958C12.1851 12.899 11.9298 13.0005 11.6745 13.0005C11.4193 13.0005 11.164 12.899 10.9598 12.6958C10.5343 12.2726 10.5343 11.6463 10.9427 11.24ZM15.3505 0.101562C6.87538 0.101562 0 6.95731 0 15.3704C0 23.7835 6.89239 30.6393 15.3505 30.6393C23.8085 30.6393 30.7009 23.7835 30.7009 15.3704C30.7009 6.95731 23.8426 0.101562 15.3505 0.101562Z" fill="#93B2DC"/>
</g>
</svg>
